<?xml version="1.0" encoding="UTF-8" standalone="no"?>
<!-- Created with Inkscape (http://www.inkscape.org/) -->

<svg
   version="1.1"
   id="svg2"
   xml:space="preserve"
   width="77.786667"
   height="72.400002"
   viewBox="0 0 77.786667 72.400002"
   sodipodi:docname="CenterEdge Mark_Cmyk.eps"
   xmlns:inkscape="http://www.inkscape.org/namespaces/inkscape"
   xmlns:sodipodi="http://sodipodi.sourceforge.net/DTD/sodipodi-0.dtd"
   xmlns="http://www.w3.org/2000/svg"
   xmlns:svg="http://www.w3.org/2000/svg"><defs
     id="defs6"><clipPath
       clipPathUnits="userSpaceOnUse"
       id="clipPath18"><path
         d="m 444.32,231.234 c 21.164,-14.953 42.336,-29.902 63.496,-44.855 3.555,-2.52 7.11,-5.02 10.664,-7.527 15.352,-10.852 27.922,-4.356 27.922,14.453 0,26.179 0,105.945 0,119.656 0,12.238 0,24.473 0,36.715 0,18.804 -12.57,25.308 -27.922,14.457 -3.554,-2.508 -7.109,-5.016 -10.664,-7.528 -21.16,-14.953 -42.332,-29.902 -63.496,-44.859 -7.703,-5.437 -15.41,-10.883 -23.113,-16.324 -8.379,-5.922 -17.344,-12.356 -17.461,-23.715 -0.078,-7.223 3.758,-14.457 11.512,-19.937 9.687,-6.844 19.387,-13.692 29.062,-20.536 z"
         id="path16" /></clipPath><clipPath
       clipPathUnits="userSpaceOnUse"
       id="clipPath24"><path
         d="m 444.32,231.234 c 21.164,-14.953 42.336,-29.902 63.496,-44.855 3.555,-2.52 7.11,-5.02 10.664,-7.527 15.352,-10.852 27.922,-4.356 27.922,14.453 0,26.179 0,105.945 0,119.656 0,12.238 0,24.473 0,36.715 0,18.804 -12.57,25.308 -27.922,14.457 -3.554,-2.508 -7.109,-5.016 -10.664,-7.528 -21.16,-14.953 -42.332,-29.902 -63.496,-44.859 -7.703,-5.437 -15.41,-10.883 -23.113,-16.324 -8.379,-5.922 -17.344,-12.356 -17.461,-23.715 -0.078,-7.223 3.758,-14.457 11.512,-19.937 9.687,-6.844 19.387,-13.692 29.062,-20.536"
         id="path22" /></clipPath></defs><sodipodi:namedview
     id="namedview4"
     pagecolor="#ffffff"
     bordercolor="#666666"
     borderopacity="1.0"
     inkscape:pageshadow="2"
     inkscape:pageopacity="0.0"
     inkscape:pagecheckerboard="0" /><g
     id="g8"
     inkscape:groupmode="layer"
     inkscape:label="ink_ext_XXXXXX"
     transform="matrix(1.3333333,0,0,-1.3333333,0,72.4)"><g
       id="g10"
       transform="scale(0.1)"><g
         id="g12"><g
           id="g14"
           clip-path="url(#clipPath18)"><g
             id="g20"
             clip-path="url(#clipPath24)"><g
               id="g26"
               transform="matrix(10,0,0,-10,-81618.3,82181.5)"><path
                 d="m 8206.2621,8195.0249 c 2.1162,1.4951 4.2333,2.9902 6.3495,4.4853 -0.4404,-1.3291 -0.8808,-3.0879 -1.3212,-4.9082 -2.6446,-0.5439 -5.2891,-1.0869 -7.9345,-1.6308 0.9687,0.6845 1.9384,1.3691 2.9062,2.0537 z"
                 style="fill:#0eadca;fill-opacity:1;fill-rule:nonzero;stroke:none"
                 id="path28" /><path
                 d="m 8212.6116,8199.5102 c 0.3555,0.2519 0.711,0.5019 1.0664,0.7529 -0.3515,-1.4375 -0.7041,-3.3769 -1.0556,-5.3876 -0.4444,-0.091 -0.8877,-0.1827 -1.332,-0.2735 0.4404,1.8203 0.8808,3.5791 1.3212,4.9082 z"
                 style="fill:#0eadca;fill-opacity:1;fill-rule:nonzero;stroke:none"
                 id="path30" /><path
                 d="m 8213.678,8200.2631 c 1.5352,1.085 2.792,0.4356 2.792,-1.4453 0,-1.0019 0,-2.79 0,-4.6923 -0.3516,0.8291 -1.9599,1.1484 -3.8476,0.75 0.3515,2.0107 0.7041,3.9501 1.0556,5.3876 z"
                 style="fill:#0eadca;fill-opacity:1;fill-rule:nonzero;stroke:none"
                 id="path32" /><path
                 d="m 8203.3559,8192.9712 c 2.6454,0.5439 5.2899,1.0869 7.9345,1.6308 -0.3526,-1.3066 -0.5264,-2.7226 -0.5235,-4.0429 -2.8535,0.1392 -5.7079,0.2788 -8.5624,0.4184 -0.01,0.7222 0.376,1.4458 1.1514,1.9937 z"
                 style="fill:#0eadca;fill-opacity:1;fill-rule:nonzero;stroke:none"
                 id="path34" /><path
                 d="m 8211.2904,8194.602 c 0.4443,0.091 0.8876,0.1826 1.332,0.2735 -0.2813,-1.4336 -0.4209,-2.9658 -0.418,-4.3867 -0.4795,0.023 -0.958,0.047 -1.4375,0.07 0,1.3203 0.1709,2.7363 0.5235,4.0429 z"
                 style="fill:#0eadca;fill-opacity:1;fill-rule:nonzero;stroke:none"
                 id="path36" /><path
                 d="m 8212.6224,8194.8755 c 1.8877,0.3984 3.496,0.079 3.8476,-0.75 0,-1.3321 0,-2.7192 0,-3.9321 -0.4912,0.104 -2.2383,0.2026 -4.2656,0.2954 0,1.4209 0.1367,2.9531 0.418,4.3867 z"
                 style="fill:#0eadca;fill-opacity:1;fill-rule:nonzero;stroke:none"
                 id="path38" /><path
                 d="m 8202.2045,8190.9775 c 2.8545,-0.1396 5.7089,-0.2792 8.5624,-0.4184 0.01,-1.811 0.4131,-3.2368 0.794,-4.2002 -2.5361,0.7491 -5.0742,1.4981 -7.6103,2.2471 -0.8379,0.5923 -1.7344,1.2358 -1.7461,2.3715 z"
                 style="fill:#0eadca;fill-opacity:1;fill-rule:nonzero;stroke:none"
                 id="path40" /><path
                 d="m 8210.7669,8190.5591 c 0.4795,-0.023 0.958,-0.047 1.4375,-0.07 0,-1.9243 0.3291,-3.4814 0.6338,-4.5073 -0.4258,0.126 -0.8516,0.2515 -1.2773,0.3774 -0.3809,0.9634 -0.7881,2.3892 -0.794,4.2002 z"
                 style="fill:#0eadca;fill-opacity:1;fill-rule:nonzero;stroke:none"
                 id="path42" /><path
                 d="m 8212.2044,8190.4888 c 2.0273,-0.093 3.7744,-0.1914 4.2656,-0.2954 0,-1.5796 0,-2.8628 0,-3.3413 -0.2793,-1.0366 -1.8164,-1.417 -3.6318,-0.8706 -0.3047,1.0259 -0.6299,2.583 -0.6338,4.5073 z"
                 style="fill:#0eadca;fill-opacity:1;fill-rule:nonzero;stroke:none"
                 id="path44" /><path
                 d="m 8203.9506,8188.606 c 2.5361,-0.749 5.0742,-1.498 7.6103,-2.2471 0.3505,-1.2905 0.7011,-2.5805 1.0507,-3.871 -2.1162,1.4951 -4.2333,2.9902 -6.3495,4.4858 -0.7705,0.5439 -1.541,1.0883 -2.3115,1.6323 z"
                 style="fill:#0eadca;fill-opacity:1;fill-rule:nonzero;stroke:none"
                 id="path46" /><path
                 d="m 8211.5609,8186.3589 c 0.4257,-0.1259 0.8515,-0.2514 1.2773,-0.3774 0.2803,-1.415 0.5596,-2.8305 0.8398,-4.2465 -0.3554,0.2509 -0.7109,0.5014 -1.0664,0.7529 -0.3496,1.2905 -0.7002,2.5805 -1.0507,3.871 z"
                 style="fill:#0eadca;fill-opacity:1;fill-rule:nonzero;stroke:none"
                 id="path48" /><path
                 d="m 8212.8382,8185.9815 c 1.8154,-0.5464 3.3525,-0.166 3.6318,0.8706 0,-1.2236 0,-2.4472 0,-3.6714 0,-1.8803 -1.2568,-2.5307 -2.792,-1.4457 -0.2802,1.416 -0.5595,2.8315 -0.8398,4.2465 z"
                 style="fill:#0eadca;fill-opacity:1;fill-rule:nonzero;stroke:none"
                 id="path50" /></g></g></g></g><path
         d="m 550.875,94.0352 h 3.023 c 3.54,0 6.415,1.1796 6.415,4.039 0,2.5348 -1.852,4.2108 -5.899,4.2108 -1.687,0 -2.875,-0.164 -3.539,-0.336 z m -0.172,-15.5079 h -6.41 v 27.6407 c 2.527,0.336 6.066,0.844 10.625,0.844 5.227,0 7.566,-0.844 9.441,-2.196 1.676,-1.171 2.856,-3.199 2.856,-5.898 0,-3.3672 -2.527,-5.5586 -5.723,-6.5703 v -0.3399 c 2.688,-0.8437 4.035,-3.0273 4.879,-6.7305 0.844,-4.2148 1.508,-5.7343 2.024,-6.75 h -6.735 c -0.84,1.0157 -1.347,3.3711 -2.199,6.75 -0.496,2.8594 -2.184,4.2071 -5.723,4.2071 h -3.035 z m -17.031,14.3282 c 0,-12.3008 9.277,-22.0782 21.574,-22.0782 11.969,-0.1601 21.063,9.7774 21.063,21.9063 0,12.2964 -9.094,22.2504 -21.391,22.2504 -11.969,0 -21.246,-9.954 -21.246,-22.0785 z m 49.715,0 c 0,-15.5078 -12.453,-27.8086 -28.309,-27.8086 -15.836,0 -28.469,12.3008 -28.469,27.8086 0,15.5035 12.633,27.6325 28.637,27.6325 15.688,0 28.141,-12.129 28.141,-27.6325"
         style="fill:#92a1ad;fill-opacity:1;fill-rule:nonzero;stroke:none"
         id="path52" /><path
         d="M 271.484,542.973 C 121.785,542.973 0,421.191 0,271.5 0,121.797 121.785,0 271.484,0 c 92.164,0 170.043,40.4141 219.289,113.797 6.918,10.308 4.266,24.484 -5.91,31.598 l -89.015,62.222 c -9.703,6.781 -22.84,5.125 -30.551,-3.847 -28.859,-33.575 -58.672,-49.211 -93.813,-49.211 -64.472,0 -116.925,52.457 -116.925,116.929 0,64.473 52.453,116.922 116.925,116.922 27.993,0 56.961,-11.726 79.469,-32.172 l 2.152,-1.953 -129.101,-89.293 c -10.406,-7.199 -13.02,-21.519 -5.82,-31.929 7.191,-10.403 21.515,-13.016 31.929,-5.821 L 400.156,331.02 c 5.008,3.464 8.489,8.89 9.547,14.886 1.059,5.996 -0.355,12.285 -3.879,17.258 -30.621,43.219 -83.355,71.145 -134.34,71.145 -89.781,0 -162.824,-73.039 -162.824,-162.821 0,-89.781 73.043,-162.824 162.824,-162.824 41.504,0 79.528,16.356 113.004,48.617 l 1.367,1.317 53.375,-37.305 -1.632,-1.93 C 397.047,71.3008 339.605,45.8984 271.484,45.8984 147.094,45.8984 45.8984,147.102 45.8984,271.5 c 0,124.383 101.1956,225.574 225.5856,225.574 80.496,0 147.11,-35.347 187.563,-99.531 3.269,-5.191 8.359,-8.797 14.336,-10.148 5.976,-1.36 12.125,-0.305 17.312,2.968 5.188,3.27 8.789,8.36 10.145,14.336 1.355,5.981 0.305,12.125 -2.965,17.313 -48.445,76.871 -130.961,120.961 -226.391,120.961"
         style="fill:#9f2497;fill-opacity:1;fill-rule:nonzero;stroke:none"
         id="path54" /></g></g></svg>
