<?xml version="1.0" encoding="UTF-8" standalone="no"?>
<!-- Created with Inkscape (http://www.inkscape.org/) -->

<svg
   version="1.1"
   id="svg2"
   xml:space="preserve"
   width="398.88"
   height="73.760002"
   viewBox="0 0 398.88 73.760002"
   sodipodi:docname="CenterEdge Logo_Cmyk.eps"
   xmlns:inkscape="http://www.inkscape.org/namespaces/inkscape"
   xmlns:sodipodi="http://sodipodi.sourceforge.net/DTD/sodipodi-0.dtd"
   xmlns="http://www.w3.org/2000/svg"
   xmlns:svg="http://www.w3.org/2000/svg"><defs
     id="defs6"><clipPath
       clipPathUnits="userSpaceOnUse"
       id="clipPath38"><path
         d="m 444.32,241.457 c 21.168,-14.949 42.336,-29.902 63.496,-44.852 3.563,-2.519 7.106,-5.031 10.661,-7.531 15.363,-10.859 27.929,-4.355 27.929,14.453 0,26.184 0,105.95 0,119.661 0,12.234 0,24.472 0,36.71 0,18.801 -12.566,25.309 -27.929,14.461 -3.555,-2.511 -7.098,-5.015 -10.661,-7.531 -21.16,-14.949 -42.328,-29.902 -63.496,-44.859 -7.699,-5.442 -15.41,-10.883 -23.113,-16.321 -8.387,-5.929 -17.34,-12.359 -17.461,-23.718 -0.078,-7.219 3.766,-14.461 11.52,-19.942 9.679,-6.847 19.375,-13.695 29.054,-20.531 z"
         id="path36" /></clipPath><clipPath
       clipPathUnits="userSpaceOnUse"
       id="clipPath44"><path
         d="m 444.32,241.457 c 21.168,-14.949 42.336,-29.902 63.496,-44.852 3.563,-2.519 7.106,-5.031 10.661,-7.531 15.363,-10.859 27.929,-4.355 27.929,14.453 0,26.184 0,105.95 0,119.661 0,12.234 0,24.472 0,36.71 0,18.801 -12.566,25.309 -27.929,14.461 -3.555,-2.511 -7.098,-5.015 -10.661,-7.531 -21.16,-14.949 -42.328,-29.902 -63.496,-44.859 -7.699,-5.442 -15.41,-10.883 -23.113,-16.321 -8.387,-5.929 -17.34,-12.359 -17.461,-23.718 -0.078,-7.219 3.766,-14.461 11.52,-19.942 9.679,-6.847 19.375,-13.695 29.054,-20.531"
         id="path42" /></clipPath></defs><sodipodi:namedview
     id="namedview4"
     pagecolor="#ffffff"
     bordercolor="#666666"
     borderopacity="1.0"
     inkscape:pageshadow="2"
     inkscape:pageopacity="0.0"
     inkscape:pagecheckerboard="0" /><g
     id="g8"
     inkscape:groupmode="layer"
     inkscape:label="ink_ext_XXXXXX"
     transform="matrix(1.3333333,0,0,-1.3333333,0,73.76)"><g
       id="g10"
       transform="scale(0.1)"><path
         d="m 870.207,391.43 -19.629,-25.371 c -16.754,12.445 -33.031,18.671 -54.57,18.671 -41.172,0 -67.5,-32.078 -67.5,-99.574 0,-67.019 26.328,-95.742 67.5,-95.742 21.539,0 36.859,6.703 55.527,19.629 l 18.672,-26.332 c -21.543,-18.188 -46.914,-27.762 -75.637,-27.762 -67.019,0 -109.148,48.352 -109.148,129.731 0,80.422 41.648,133.558 109.148,133.558 29.2,0 52.657,-7.66 75.637,-26.808"
         style="fill:#20335c;fill-opacity:1;fill-rule:nonzero;stroke:none"
         id="path12" /><path
         d="m 1060.73,306.223 c 0,50.742 -20.11,79.941 -61.753,79.941 -34.946,0 -58.403,-24.891 -61.754,-83.773 h 123.507 z m 38.77,-33.512 H 937.223 c 3.828,-60.797 32.55,-84.731 70.367,-84.731 25.37,0 44.04,7.18 66.07,22.5 l 17.71,-23.937 c -24.42,-19.625 -52.18,-31.594 -86.65,-31.594 -69.411,0 -110.103,49.309 -110.103,129.25 0,78.989 39.254,134.039 103.403,134.039 67.5,0 102.44,-47.39 102.44,-123.508 0,-8.617 -0.48,-16.753 -0.96,-22.019"
         style="fill:#20335c;fill-opacity:1;fill-rule:nonzero;stroke:none"
         id="path14" /><path
         d="M 1338.85,341.164 V 160.691 h -40.21 v 174.731 c 0,38.777 -15.32,51.223 -41.17,51.223 -29.68,0 -49.79,-18.672 -67.5,-46.434 v -179.52 h -40.21 v 251.801 h 34.47 l 3.35,-38.293 c 18.19,26.324 45.48,44.039 78.99,44.039 46.43,0 72.28,-29.203 72.28,-77.074"
         style="fill:#20335c;fill-opacity:1;fill-rule:nonzero;stroke:none"
         id="path16" /><path
         d="m 1533.19,171.703 c -16.27,-11.012 -34.46,-16.754 -55.53,-16.754 -41.64,0 -66.54,24.414 -66.54,70.367 v 156.063 h -43.56 v 31.113 h 43.56 v 57.926 l 40.21,4.309 v -62.235 h 60.8 l -4.31,-31.113 h -56.49 V 227.234 c 0,-26.328 9.1,-38.777 31.6,-38.777 11.97,0 22.5,3.352 34.95,10.531 l 15.31,-27.285"
         style="fill:#20335c;fill-opacity:1;fill-rule:nonzero;stroke:none"
         id="path18" /><path
         d="m 1708.88,306.223 c 0,50.742 -20.11,79.941 -61.75,79.941 -34.95,0 -58.41,-24.891 -61.76,-83.773 h 123.51 z m 38.77,-33.512 h -162.28 c 3.83,-60.797 32.55,-84.731 70.37,-84.731 25.37,0 44.04,7.18 66.07,22.5 l 17.71,-23.937 c -24.42,-19.625 -52.18,-31.594 -86.65,-31.594 -69.41,0 -110.1,49.309 -110.1,129.25 0,78.989 39.25,134.039 103.4,134.039 67.5,0 102.44,-47.39 102.44,-123.508 0,-8.617 -0.48,-16.753 -0.96,-22.019"
         style="fill:#20335c;fill-opacity:1;fill-rule:nonzero;stroke:none"
         id="path20" /><path
         d="m 1922.37,415.367 -7.65,-39.258 c -7.19,1.918 -12.93,2.875 -22.03,2.875 -32.07,0 -50.74,-22.98 -61.75,-72.285 V 160.691 h -40.21 v 251.801 h 34.47 l 3.83,-52.656 c 13.4,38.773 36.86,58.402 68.45,58.402 8.62,0 17.24,-0.957 24.89,-2.871"
         style="fill:#20335c;fill-opacity:1;fill-rule:nonzero;stroke:none"
         id="path22" /><path
         d="m 2093.26,312.445 c 0,38.297 -12.92,63.188 -45.47,63.188 -26.81,0 -43.09,-17.711 -46.92,-66.063 h 92.39 z m 66.06,-45.48 h -158.45 c 4.79,-48.828 27.77,-63.188 60.32,-63.188 21.54,0 39.73,6.703 61.75,22.02 l 28.25,-38.297 c -24.9,-20.105 -56.49,-34.465 -96.22,-34.465 -81.38,0 -123.99,53.613 -123.99,133.078 0,76.594 41.17,135.953 115.37,135.953 71.81,0 114.41,-47.867 114.41,-128.769 0,-8.617 -0.96,-19.152 -1.44,-26.332"
         style="fill:#20335c;fill-opacity:1;fill-rule:nonzero;stroke:none"
         id="path24" /><path
         d="m 2345.53,234.414 v 113.453 c -12.45,14.84 -25.37,23.938 -44.04,23.938 -29.68,0 -49.79,-24.895 -49.79,-84.254 0,-63.668 18.2,-83.774 45.48,-83.774 20.59,0 34.95,10.532 48.35,30.637 z m 67.98,281 V 160.691 h -59.84 l -3.83,31.118 c -15.32,-22.02 -38.78,-38.774 -72.76,-38.774 -63.67,0 -96.23,53.613 -96.23,134.516 0,78.508 40.22,134.515 102.93,134.515 25.85,0 46.43,-10.531 61.75,-25.371 v 126.379 l 67.98,-7.66"
         style="fill:#20335c;fill-opacity:1;fill-rule:nonzero;stroke:none"
         id="path26" /><path
         d="m 2516.89,331.113 c 0,-29.203 16.28,-46.433 42.13,-46.433 27.29,0 41.65,16.273 41.65,47.39 0,30.16 -13.88,44.52 -42.13,44.52 -25.85,0 -41.65,-17.711 -41.65,-45.477 z m 175.69,69.41 c -18.67,-7.179 -42.6,-9.57 -73.24,-9.57 31.11,-13.883 46.91,-33.031 46.91,-65.105 0,-49.309 -39.73,-85.211 -104.36,-85.211 -11.01,0 -20.58,0.957 -29.68,3.351 -5.74,-3.832 -9.57,-10.05 -9.57,-16.754 0,-8.617 4.31,-16.754 29.2,-16.754 h 38.78 c 57.44,0 94.3,-30.636 94.3,-72.765 0,-51.2228 -44.52,-82.34 -129.25,-82.34 -92.87,0 -118.24,30.1602 -118.24,80.902 h 60.79 c 0,-23.933 10.54,-34.464 58.89,-34.464 46.91,0 59.36,12.921 59.36,31.117 0,17.23 -12.93,27.761 -39.74,27.761 h -37.34 c -53.13,0 -75.15,22.981 -75.15,49.789 0,18.188 11.49,35.903 29.68,47.391 -31.6,17.234 -45,39.731 -45,72.285 0,56.008 44.52,91.91 108.19,91.91 58.4,-1.433 88.08,13.407 118.72,30.641 l 16.75,-52.184"
         style="fill:#20335c;fill-opacity:1;fill-rule:nonzero;stroke:none"
         id="path28" /><path
         d="m 2855.34,312.445 c 0,38.297 -12.93,63.188 -45.48,63.188 -26.81,0 -43.08,-17.711 -46.91,-66.063 h 92.39 z m 66.06,-45.48 h -158.45 c 4.78,-48.828 27.76,-63.188 60.31,-63.188 21.55,0 39.74,6.703 61.76,22.02 l 28.24,-38.297 c -24.89,-20.105 -56.49,-34.465 -96.22,-34.465 -81.38,0 -123.99,53.613 -123.99,133.078 0,76.594 41.17,135.953 115.37,135.953 71.81,0 114.42,-47.867 114.42,-128.769 0,-8.617 -0.96,-19.152 -1.44,-26.332"
         style="fill:#20335c;fill-opacity:1;fill-rule:nonzero;stroke:none"
         id="path30" /><g
         id="g32"><g
           id="g34"
           clip-path="url(#clipPath38)"><g
             id="g40"
             clip-path="url(#clipPath44)"><g
               id="g46"
               transform="matrix(10,0,0,-10,-80414.2,82181.6)"><path
                 d="m 8085.8457,8194.0154 c 2.1168,1.4952 4.2336,2.9904 6.3499,4.4856 -0.4399,-1.3291 -0.8809,-3.088 -1.3208,-4.9085 -2.6452,-0.5439 -5.2904,-1.0869 -7.9351,-1.6304 0.9684,0.6851 1.9376,1.3697 2.906,2.0533 z"
                 style="fill:#0eadca;fill-opacity:1;fill-rule:nonzero;stroke:none"
                 id="path48" /><path
                 d="m 8092.1956,8198.501 c 0.356,0.252 0.7105,0.503 1.066,0.753 -0.3516,-1.4376 -0.7036,-3.3762 -1.0552,-5.388 -0.4444,-0.091 -0.8878,-0.1826 -1.3316,-0.2735 0.4399,1.8205 0.8809,3.5794 1.3208,4.9085 z"
                 style="fill:#0eadca;fill-opacity:1;fill-rule:nonzero;stroke:none"
                 id="path50" /><path
                 d="m 8093.2616,8199.254 c 1.5362,1.086 2.7931,0.4356 2.7931,-1.4454 0,-1.002 0,-2.7902 0,-4.6926 -0.352,0.8291 -1.9605,1.1485 -3.8483,0.75 0.3516,2.0118 0.7036,3.9504 1.0552,5.388 z"
                 style="fill:#0eadca;fill-opacity:1;fill-rule:nonzero;stroke:none"
                 id="path52" /><path
                 d="m 8082.9397,8191.9621 c 2.6447,0.5435 5.2899,1.0865 7.9351,1.6304 -0.3526,-1.3057 -0.5274,-2.7228 -0.524,-4.0432 -2.8537,0.1397 -5.7088,0.2789 -8.563,0.4185 -0.01,0.7222 0.3765,1.4464 1.1519,1.9943 z"
                 style="fill:#0eadca;fill-opacity:1;fill-rule:nonzero;stroke:none"
                 id="path54" /><path
                 d="m 8090.8748,8193.5925 c 0.4438,0.091 0.8872,0.1827 1.3316,0.2735 -0.2818,-1.4337 -0.4209,-2.966 -0.418,-4.387 -0.4795,0.023 -0.9581,0.047 -1.4376,0.07 0,1.3204 0.1714,2.7375 0.524,4.0432 z"
                 style="fill:#0eadca;fill-opacity:1;fill-rule:nonzero;stroke:none"
                 id="path56" /><path
                 d="m 8092.2064,8193.866 c 1.8878,0.3985 3.4963,0.079 3.8483,-0.75 0,-1.3317 0,-2.7194 0,-3.9324 -0.4912,0.104 -2.2393,0.2026 -4.2663,0.2954 0,1.421 0.1362,2.9533 0.418,4.387 z"
                 style="fill:#0eadca;fill-opacity:1;fill-rule:nonzero;stroke:none"
                 id="path58" /><path
                 d="m 8081.7878,8189.9678 c 2.8542,-0.1396 5.7093,-0.2788 8.563,-0.4185 0.01,-1.8111 0.4131,-3.2365 0.794,-4.2004 -2.5368,0.7491 -5.074,1.4981 -7.6108,2.2472 -0.8384,0.5928 -1.734,1.2359 -1.7462,2.3717 z"
                 style="fill:#0eadca;fill-opacity:1;fill-rule:nonzero;stroke:none"
                 id="path60" /><path
                 d="m 8090.3508,8189.5493 c 0.4795,-0.023 0.9581,-0.047 1.4376,-0.07 0,-1.9244 0.3296,-3.4811 0.6338,-4.5071 -0.4258,0.1255 -0.8516,0.251 -1.2774,0.377 -0.3809,0.9639 -0.7886,2.3893 -0.794,4.2004 z"
                 style="fill:#0eadca;fill-opacity:1;fill-rule:nonzero;stroke:none"
                 id="path62" /><path
                 d="m 8091.7884,8189.479 c 2.027,-0.093 3.7751,-0.1914 4.2663,-0.2954 0,-1.5792 0,-2.863 0,-3.3415 -0.2798,-1.0362 -1.817,-1.4171 -3.6325,-0.8702 -0.3042,1.026 -0.6299,2.5827 -0.6338,4.5071 z"
                 style="fill:#0eadca;fill-opacity:1;fill-rule:nonzero;stroke:none"
                 id="path64" /><path
                 d="m 8083.534,8187.5961 c 2.5368,-0.7491 5.074,-1.4981 7.6108,-2.2472 0.3501,-1.2901 0.7007,-2.5807 1.0508,-3.8713 -2.1163,1.4952 -4.2331,2.9904 -6.3499,4.4861 -0.7701,0.5445 -1.5411,1.0884 -2.3117,1.6324 z"
                 style="fill:#0eadca;fill-opacity:1;fill-rule:nonzero;stroke:none"
                 id="path66" /><path
                 d="m 8091.1448,8185.3489 c 0.4258,-0.126 0.8516,-0.2515 1.2774,-0.377 0.2798,-1.4156 0.5596,-2.8312 0.8394,-4.2473 -0.3555,0.251 -0.71,0.5015 -1.066,0.753 -0.3501,1.2906 -0.7007,2.5812 -1.0508,3.8713 z"
                 style="fill:#0eadca;fill-opacity:1;fill-rule:nonzero;stroke:none"
                 id="path68" /><path
                 d="m 8092.4222,8184.9719 c 1.8155,-0.5469 3.3527,-0.166 3.6325,0.8702 0,-1.2237 0,-2.4474 0,-3.6716 0,-1.88 -1.2569,-2.5309 -2.7931,-1.4459 -0.2798,1.4161 -0.5596,2.8317 -0.8394,4.2473 z"
                 style="fill:#0eadca;fill-opacity:1;fill-rule:nonzero;stroke:none"
                 id="path70" /></g></g></g></g><path
         d="m 2953.39,414.73 h 3.56 c 4.16,0 7.55,1.391 7.55,4.754 0,2.981 -2.19,4.954 -6.94,4.954 -1.99,0 -3.39,-0.196 -4.17,-0.399 z m -0.2,-18.242 h -7.54 v 32.516 c 2.97,0.394 7.13,0.992 12.5,0.992 6.15,0 8.9,-0.992 11.11,-2.578 1.97,-1.383 3.35,-3.77 3.35,-6.941 0,-3.961 -2.97,-6.539 -6.73,-7.735 v -0.394 c 3.17,-0.993 4.75,-3.567 5.74,-7.922 0.99,-4.957 1.78,-6.742 2.38,-7.938 h -7.92 c -0.99,1.196 -1.58,3.965 -2.59,7.938 -0.58,3.363 -2.56,4.953 -6.73,4.953 h -3.57 z m -20.04,16.856 c 0,-14.473 10.92,-25.973 25.39,-25.973 14.07,-0.191 24.77,11.5 24.77,25.77 0,14.468 -10.7,26.175 -25.16,26.175 -14.08,0 -25,-11.707 -25,-25.972 z m 58.49,0 c 0,-18.246 -14.65,-32.715 -33.3,-32.715 -18.63,0 -33.49,14.469 -33.49,32.715 0,18.238 14.86,32.511 33.69,32.511 18.45,0 33.1,-14.273 33.1,-32.511"
         style="fill:#92a1ad;fill-opacity:1;fill-rule:nonzero;stroke:none"
         id="path72" /><path
         d="M 271.484,553.195 C 121.785,553.195 0,431.414 0,281.727 0,132.02 121.785,10.2227 271.484,10.2227 c 92.164,0 170.043,40.414 219.289,113.7973 6.918,10.308 4.266,24.484 -5.91,31.597 l -89.015,62.227 c -9.703,6.777 -22.84,5.121 -30.551,-3.852 -28.859,-33.57 -58.672,-49.207 -93.813,-49.207 -64.472,0 -116.925,52.453 -116.925,116.93 0,64.469 52.453,116.922 116.925,116.922 27.993,0 56.961,-11.731 79.469,-32.176 l 2.152,-1.953 -129.101,-89.293 c -10.406,-7.195 -13.02,-21.52 -5.82,-31.93 7.191,-10.402 21.515,-13.012 31.929,-5.816 l 150.043,103.777 c 5.008,3.465 8.489,8.891 9.547,14.887 1.059,5.992 -0.355,12.281 -3.879,17.258 -30.621,43.214 -83.355,71.14 -134.34,71.14 -89.781,0 -162.824,-73.039 -162.824,-162.816 0,-89.785 73.043,-162.828 162.824,-162.828 41.504,0 79.528,16.359 113.004,48.621 l 1.367,1.316 53.375,-37.304 -1.632,-1.934 C 397.047,81.5234 339.605,56.1211 271.484,56.1211 c -124.39,0 -225.5856,101.2029 -225.5856,225.6059 0,124.378 101.1956,225.574 225.5856,225.574 80.496,0 147.11,-35.348 187.563,-99.535 3.269,-5.192 8.359,-8.793 14.336,-10.149 5.976,-1.355 12.125,-0.301 17.312,2.969 5.188,3.269 8.789,8.359 10.145,14.34 1.355,5.976 0.305,12.125 -2.965,17.308 -48.445,76.871 -130.961,120.961 -226.391,120.961"
         style="fill:#9f2497;fill-opacity:1;fill-rule:nonzero;stroke:none"
         id="path74" /><path
         d="m 1345.84,70 c -0.59,-0.9531 -1.21,-1.6719 -1.87,-2.1445 -0.66,-0.4805 -1.49,-0.7149 -2.53,-0.7149 -0.91,0 -1.89,0.2852 -2.94,0.8594 -1.05,0.5742 -2.24,1.2188 -3.57,1.9375 -1.33,0.7148 -2.84,1.3594 -4.55,1.9336 -1.7,0.5742 -3.65,0.8594 -5.83,0.8594 -3.76,0 -6.57,-0.8086 -8.41,-2.4024 -1.84,-1.6093 -2.76,-3.7773 -2.76,-6.5234 0,-1.7383 0.55,-3.1875 1.66,-4.3359 1.11,-1.1524 2.57,-2.1446 4.37,-2.9688 1.8,-0.8359 3.87,-1.5937 6.19,-2.2852 2.32,-0.707 4.68,-1.4804 7.1,-2.3281 2.42,-0.8515 4.79,-1.8554 7.11,-3.0039 2.31,-1.1523 4.38,-2.6172 6.18,-4.3945 1.81,-1.7891 3.26,-3.961 4.37,-6.5195 1.12,-2.5508 1.67,-5.6329 1.67,-9.2422 0,-4.0118 -0.7,-7.75 -2.08,-11.2383 -1.39,-3.4922 -3.4,-6.5352 -6.04,-9.13674 -2.64,-2.58593 -5.88,-4.625 -9.75,-6.11718 C 1330.3,0.746094 1325.9,0 1320.98,0 c -2.69,0 -5.43,0.273438 -8.23,0.835938 -2.8,0.550782 -5.5,1.335942 -8.12,2.351562 -2.61,1.00781 -5.07,2.21094 -7.37,3.59375 -2.3,1.38672 -4.3,2.92969 -6.01,4.64065 l 5.95,9.3984 c 0.44,0.707 1.05,1.2813 1.85,1.7266 0.79,0.4297 1.64,0.6523 2.55,0.6523 1.19,0 2.39,-0.3789 3.6,-1.1367 1.2,-0.7461 2.58,-1.582 4.1,-2.4961 1.53,-0.9141 3.28,-1.7383 5.27,-2.4961 1.98,-0.7578 4.32,-1.125 7.01,-1.125 3.64,0 6.48,0.7969 8.51,2.4063 2.02,1.6054 3.03,4.1562 3.03,7.6445 0,2.0117 -0.56,3.6602 -1.67,4.9258 -1.11,1.2695 -2.57,2.3281 -4.37,3.1523 -1.8,0.836 -3.85,1.5664 -6.15,2.2071 -2.31,0.6289 -4.66,1.332 -7.08,2.1054 -2.42,0.7696 -4.78,1.7227 -7.07,2.8594 -2.3,1.125 -4.35,2.6172 -6.16,4.457 -1.8,1.8438 -3.26,4.1446 -4.37,6.9024 -1.11,2.7461 -1.67,6.1562 -1.67,10.1953 0,3.2539 0.66,6.418 1.96,9.5117 1.32,3.0977 3.24,5.8438 5.77,8.2617 2.54,2.418 5.66,4.3516 9.34,5.8047 3.69,1.4492 7.91,2.168 12.67,2.168 2.65,0 5.24,-0.211 7.76,-0.6289 2.52,-0.4024 4.9,-1.0313 7.16,-1.8438 2.26,-0.8086 4.37,-1.7734 6.33,-2.914 1.97,-1.1211 3.72,-2.4024 5.27,-3.8282 l -5,-9.332"
         style="fill:#0eadca;fill-opacity:1;fill-rule:nonzero;stroke:none"
         id="path76" /><path
         d="m 1475.32,44.3047 c 0,4.2891 -0.55,8.1445 -1.66,11.5664 -1.11,3.4258 -2.71,6.3398 -4.79,8.7187 -2.08,2.379 -4.63,4.1954 -7.64,5.4649 -3.02,1.2656 -6.44,1.9062 -10.29,1.9062 -3.88,0 -7.34,-0.6406 -10.38,-1.9062 -3.03,-1.2695 -5.58,-3.0859 -7.67,-5.4649 -2.08,-2.3789 -3.67,-5.2929 -4.78,-8.7187 -1.11,-3.4219 -1.67,-7.2773 -1.67,-11.5664 0,-4.3242 0.56,-8.1914 1.67,-11.6289 1.11,-3.4258 2.7,-6.3281 4.78,-8.707 2.09,-2.379 4.64,-4.1954 7.67,-5.4375 3.04,-1.254 6.5,-1.879 10.38,-1.879 3.85,0 7.27,0.625 10.29,1.879 3.01,1.2421 5.56,3.0585 7.64,5.4375 2.08,2.3789 3.68,5.2812 4.79,8.707 1.11,3.4375 1.66,7.3047 1.66,11.6289 z m 20.58,0 c 0,-6.2578 -1.08,-12.0859 -3.24,-17.4844 -2.16,-5.3867 -5.2,-10.0781 -9.13,-14.0625 -3.93,-3.98827 -8.65,-7.11327 -14.18,-9.35936 C 1463.81,1.13672 1457.68,0 1450.94,0 c -6.74,0 -12.89,1.13672 -18.43,3.39844 -5.55,2.24609 -10.3,5.37109 -14.24,9.35936 -3.95,3.9844 -7,8.6758 -9.16,14.0625 -2.16,5.3985 -3.25,11.2266 -3.25,17.4844 0,6.2617 1.09,12.0898 3.25,17.4883 2.16,5.3867 5.21,10.0625 9.16,14.0234 3.94,3.9727 8.69,7.0859 14.24,9.3438 5.54,2.2617 11.69,3.3867 18.43,3.3867 6.74,0 12.87,-1.1367 18.41,-3.4102 5.53,-2.289 10.25,-5.4101 14.18,-9.3711 3.93,-3.9609 6.97,-8.6406 9.13,-14.039 2.16,-5.3828 3.24,-11.1993 3.24,-17.4219"
         style="fill:#0eadca;fill-opacity:1;fill-rule:nonzero;stroke:none"
         id="path78" /><path
         d="m 1610.59,87.5938 v -15.461 h -35.57 V 50.1875 h 29.62 V 34.6758 h -29.62 V 0.953125 H 1554.8 V 87.5938 h 55.79"
         style="fill:#0eadca;fill-opacity:1;fill-rule:nonzero;stroke:none"
         id="path80" /><path
         d="M 1733.24,87.5938 V 71.6602 h -24.38 V 0.953125 h -20.1 V 71.6602 h -24.38 v 15.9336 h 68.86"
         style="fill:#0eadca;fill-opacity:1;fill-rule:nonzero;stroke:none"
         id="path82" /><path
         d="m 1785.54,87.5938 h 16.89 c 1.73,0 3.2,-0.3946 4.36,-1.1915 1.18,-0.7851 1.94,-1.8437 2.29,-3.1484 l 11.89,-45.1953 c 0.41,-1.4648 0.8,-3.0313 1.19,-4.6914 0.41,-1.6719 0.69,-3.4102 0.9,-5.2422 0.4,1.8711 0.83,3.6211 1.31,5.2695 0.47,1.6446 0.93,3.1993 1.36,4.6641 l 14.04,45.1953 c 0.35,1.1094 1.12,2.1172 2.28,3.0039 1.18,0.8906 2.59,1.336 4.26,1.336 h 5.95 c 1.74,0 3.18,-0.379 4.3,-1.1524 1.14,-0.7851 1.92,-1.8398 2.35,-3.1875 l 13.92,-45.1953 c 0.43,-1.3828 0.89,-2.8633 1.37,-4.4297 0.48,-1.5703 0.89,-3.2422 1.25,-5.0195 0.31,1.7383 0.64,3.4101 0.98,4.9922 0.34,1.582 0.69,3.0742 1.04,4.457 l 11.9,45.1953 c 0.31,1.1484 1.07,2.168 2.26,3.0313 1.19,0.875 2.61,1.3086 4.27,1.3086 h 15.83 L 1884.96,0.953125 h -18.19 l -16.3,53.703175 c -0.27,0.8242 -0.56,1.7382 -0.86,2.7343 -0.3,0.9922 -0.59,2.0391 -0.86,3.1485 -0.28,-1.1094 -0.57,-2.1563 -0.87,-3.1485 -0.3,-0.9961 -0.59,-1.9101 -0.86,-2.7343 L 1830.49,0.953125 h -18.2 L 1785.54,87.5938"
         style="fill:#0eadca;fill-opacity:1;fill-rule:nonzero;stroke:none"
         id="path84" /><path
         d="m 1986.65,34.0742 h 23.67 l -7.97,23.7344 c -0.51,1.5 -1.12,3.2773 -1.82,5.3164 -0.69,2.0391 -1.37,4.25 -2.05,6.6289 -0.62,-2.418 -1.28,-4.6523 -1.96,-6.7187 -0.66,-2.0664 -1.3,-3.8438 -1.89,-5.3477 z m 55.67,-33.121075 h -15.58 c -1.75,0 -3.19,0.406255 -4.31,1.218755 -1.14,0.80859 -1.92,1.85546 -2.36,3.12109 l -5.11,15.10933 h -32.94 l -5.11,-15.10933 c -0.41,-1.10938 -1.18,-2.10547 -2.33,-3.00391 -1.15,-0.89062 -2.55,-1.335935 -4.22,-1.335935 h -15.7 L 1988.2,87.5938 h 20.58 l 33.54,-86.640675"
         style="fill:#0eadca;fill-opacity:1;fill-rule:nonzero;stroke:none"
         id="path86" /><path
         d="m 2117.45,46.8672 h 8.1 c 2.73,0 5.05,0.3398 6.97,1.0312 1.93,0.6954 3.51,1.6602 4.74,2.8907 1.22,1.2265 2.11,2.664 2.67,4.3125 0.55,1.6445 0.84,3.4101 0.84,5.3203 0,3.8008 -1.24,6.7812 -3.72,8.9258 -2.47,2.1289 -6.32,3.2031 -11.5,3.2031 h -8.1 z M 2117.45,33 V 0.953125 h -20.1 V 87.5938 h 28.2 c 6.26,0 11.6,-0.6407 16.02,-1.9375 4.42,-1.2774 8.02,-3.0704 10.82,-5.3711 2.8,-2.3008 4.82,-5.0157 6.09,-8.1524 1.27,-3.125 1.91,-6.5351 1.91,-10.2226 0,-2.8204 -0.38,-5.4766 -1.13,-7.9727 -0.75,-2.4961 -1.88,-4.8086 -3.37,-6.9258 -1.47,-2.1172 -3.3,-4.0117 -5.46,-5.6875 -2.16,-1.6601 -4.65,-3.0312 -7.46,-4.0898 1.34,-0.6797 2.6,-1.5156 3.77,-2.5078 1.17,-0.9805 2.19,-2.1953 3.06,-3.6211 l 18.44,-30.152375 h -18.2 c -3.37,0 -5.79,1.269535 -7.26,3.804685 L 2128.39,29.918 c -0.62,1.1093 -1.37,1.8945 -2.23,2.3789 -0.85,0.4687 -2.04,0.7031 -3.59,0.7031 h -5.12"
         style="fill:#0eadca;fill-opacity:1;fill-rule:nonzero;stroke:none"
         id="path88" /><path
         d="m 2279.62,87.5938 v -15.461 h -35.56 V 51.9141 h 27.24 V 37.0547 h -27.24 V 16.4141 h 35.56 V 0.953125 h -55.78 V 87.5938 h 55.78"
         style="fill:#0eadca;fill-opacity:1;fill-rule:nonzero;stroke:none"
         id="path90" /></g></g></svg>
